<?xml version="1.0" standalone="no"?>
<!DOCTYPE svg PUBLIC "-//W3C//DTD SVG 20010904//EN"
 "http://www.w3.org/TR/2001/REC-SVG-20010904/DTD/svg10.dtd">
<svg version="1.0" xmlns="http://www.w3.org/2000/svg"
 width="1231.000000pt" height="1231.000000pt" viewBox="0 0 1231.000000 1231.000000"
 preserveAspectRatio="xMidYMid meet">
<metadata>
Created by potrace 1.14, written by Peter Selinger 2001-2017
</metadata>
<g transform="translate(0.000000,1231.000000) scale(0.100000,-0.100000)"
fill="#000000" stroke="none">
<path d="M7053 12298 c-15 -20 -33 -78 -33 -108 0 -28 0 -28 -37 -14 -21 7
-46 13 -56 14 -10 0 -37 13 -60 30 -56 40 -123 49 -157 22 -20 -16 -30 -18
-59 -10 -19 6 -60 8 -91 5 -30 -2 -66 0 -80 6 -52 20 -93 25 -116 15 -13 -6
-24 -14 -24 -18 0 -4 -35 -8 -77 -7 -185 1 -228 -6 -277 -40 l-46 -33 0 45 c0
52 -39 109 -61 88 -9 -9 -9 -19 0 -44 12 -34 14 -81 5 -115 -4 -15 -12 -19
-32 -16 -37 5 -83 -14 -89 -38 -4 -15 -14 -20 -37 -20 -17 0 -43 -8 -56 -17
-14 -10 -43 -23 -65 -29 -22 -6 -47 -14 -56 -18 -13 -6 -17 1 -21 32 -12 85
-67 152 -125 152 -38 0 -35 -18 9 -50 52 -38 68 -66 75 -134 l5 -53 -38 -6
c-87 -15 -141 -8 -174 19 -23 20 -34 24 -43 15 -16 -16 3 -63 33 -79 24 -13
134 -11 203 4 24 6 27 3 27 -20 0 -20 -5 -26 -22 -26 -42 0 -68 -12 -74 -34
-4 -16 -13 -21 -42 -23 -20 -1 -64 -3 -97 -5 -67 -4 -92 -15 -126 -55 -22 -25
-30 -28 -79 -25 -101 4 -136 -38 -82 -99 26 -29 32 -31 46 -20 12 10 13 18 5
32 -13 26 -4 39 29 39 20 0 23 -3 14 -12 -20 -20 -15 -48 9 -48 18 0 17 -3
-10 -26 -19 -15 -36 -44 -44 -71 -11 -39 -19 -47 -53 -60 -21 -9 -77 -19 -124
-23 -103 -9 -153 -30 -190 -82 -16 -22 -31 -34 -35 -28 -10 16 -27 1 -20 -19
3 -10 -1 -31 -10 -47 -8 -17 -15 -55 -15 -91 l0 -61 -49 -36 c-47 -34 -81 -85
-81 -120 0 -27 -44 -41 -80 -26 -45 18 -63 50 -50 84 17 46 -11 63 -43 28 -51
-56 19 -169 105 -173 19 -1 16 -4 -14 -16 -46 -19 -79 -88 -87 -185 -5 -54
-11 -72 -34 -97 -15 -17 -32 -31 -37 -31 -20 0 -42 -61 -35 -98 4 -23 1 -46
-9 -66 -88 -182 -100 -230 -72 -285 9 -17 11 -32 5 -42 -15 -24 -10 -46 16
-77 20 -24 22 -31 10 -36 -9 -3 -15 -19 -15 -38 -1 -27 -8 -38 -41 -61 -50
-35 -84 -103 -75 -152 8 -39 56 -85 90 -85 17 0 22 -6 22 -22 -1 -15 6 -23 19
-26 53 -8 69 -15 91 -39 18 -19 24 -37 24 -70 0 -24 7 -57 15 -72 24 -48 -3
-55 -61 -16 -60 40 -150 31 -222 -22 -56 -42 -64 -94 -23 -144 18 -22 21 -23
36 -8 14 14 14 18 0 47 -20 39 -9 63 38 85 54 26 110 31 144 13 l31 -15 -34
-36 c-40 -43 -72 -138 -54 -160 12 -14 46 -9 88 14 18 10 22 7 31 -22 6 -17
33 -56 60 -84 47 -51 51 -53 100 -53 43 0 51 -3 51 -19 0 -10 9 -25 19 -32 29
-21 36 -56 12 -64 -31 -10 -71 -56 -71 -82 0 -29 15 -59 43 -90 l20 -23 -39 0
c-105 0 -146 -88 -78 -169 39 -46 81 -37 51 11 -58 93 0 140 130 106 37 -10
47 -10 50 0 8 22 38 12 58 -20 14 -22 31 -34 55 -39 20 -4 41 -17 50 -31 27
-41 59 -68 89 -74 24 -5 30 -13 36 -43 12 -62 55 -137 121 -209 35 -38 79 -77
98 -86 28 -13 36 -24 42 -54 3 -20 13 -68 20 -106 8 -38 13 -70 12 -71 -2 -1
-40 -7 -85 -14 -124 -18 -171 -38 -229 -95 -28 -28 -72 -90 -98 -139 -37 -68
-53 -88 -74 -93 -47 -11 -124 -46 -223 -101 -52 -29 -174 -84 -270 -122 -209
-83 -754 -354 -836 -415 -185 -140 -317 -323 -364 -505 -11 -42 -24 -141 -29
-219 -12 -174 -25 -227 -100 -407 -32 -77 -77 -203 -100 -280 -23 -77 -68
-228 -100 -335 -97 -325 -125 -501 -109 -675 8 -91 34 -195 49 -195 5 0 11 -9
15 -20 3 -10 33 -46 66 -79 63 -64 71 -81 38 -81 -12 0 -69 -16 -128 -35 -234
-79 -394 -215 -492 -420 -66 -136 -82 -215 -83 -405 -1 -201 12 -269 115 -586
130 -401 263 -704 403 -919 42 -65 61 -102 53 -107 -6 -4 -1 -9 15 -13 15 -4
40 -26 59 -53 19 -26 95 -109 170 -186 l137 -139 7 -89 c3 -49 17 -133 30
-187 27 -110 116 -353 164 -449 94 -185 243 -241 436 -163 143 57 148 60 169
120 15 42 31 63 75 98 156 124 381 201 873 298 153 30 317 64 366 75 l88 21
234 -115 c283 -137 434 -198 584 -236 211 -53 518 -86 719 -77 118 5 118 5
225 -34 136 -49 181 -58 552 -113 618 -92 869 -111 1430 -111 366 0 438 2 520
18 272 51 389 197 407 507 15 268 -64 566 -191 722 -81 100 -218 186 -376 238
-76 24 -225 50 -292 50 -27 0 -48 3 -48 8 0 4 21 20 48 37 77 48 330 242 434
332 328 285 542 618 635 989 24 96 27 128 27 269 0 88 -6 189 -13 225 -17 86
-58 208 -80 239 l-19 25 113 115 c262 269 317 330 312 344 -5 14 -97 37 -147
37 -22 0 -40 18 -107 107 -44 60 -115 147 -157 195 -42 48 -76 91 -76 96 0 24
-212 93 -365 118 -87 15 -163 19 -360 18 -137 0 -284 -3 -325 -7 l-75 -7 -27
64 c-40 93 -64 191 -93 371 -28 178 -53 276 -126 500 -44 137 -48 155 -38 190
16 57 4 195 -37 425 -58 322 -77 376 -169 465 -53 52 -234 151 -525 286 -63
29 -116 54 -118 55 -5 3 82 173 141 275 81 140 95 171 158 328 l57 145 69 -2
c52 -1 75 3 98 18 29 19 29 19 62 -1 47 -29 137 -36 188 -14 22 9 61 23 87 31
26 8 50 19 53 24 3 6 18 10 33 10 27 0 72 38 85 72 3 10 58 42 122 73 73 34
115 60 115 70 0 8 -8 15 -17 15 -14 0 -12 4 7 18 14 9 49 40 78 67 40 39 52
58 52 81 0 25 6 33 35 47 34 16 75 68 75 95 0 8 15 32 34 54 38 44 51 81 37
105 -6 11 -3 26 10 47 24 39 24 63 -1 104 l-20 33 33 28 c29 26 182 133 164
115 -4 -4 -2 -13 4 -20 9 -11 15 -10 34 2 52 34 56 112 10 203 -29 58 -72 111
-90 111 -25 0 -35 25 -19 48 l15 22 28 -21 c22 -16 39 -19 97 -17 54 2 69 6
72 19 5 27 -46 78 -84 85 -36 7 -40 14 -23 46 25 47 114 59 240 33 75 -16 85
-15 76 8 -7 19 -84 38 -179 44 -64 5 -83 2 -120 -15 -44 -22 -78 -64 -78 -99
0 -15 -2 -16 -10 -3 -5 8 -10 46 -10 83 0 54 4 74 20 94 24 30 26 85 5 103 -9
7 -15 29 -15 50 0 35 3 39 35 50 25 8 35 18 35 32 0 18 -4 20 -45 14 -44 -7
-44 -7 -61 31 -9 21 -16 51 -15 66 2 18 -5 38 -19 52 -21 22 -21 25 -6 47 23
33 20 44 -19 68 l-35 22 24 31 c13 18 29 50 36 72 7 22 34 89 62 148 73 160
75 249 7 279 -21 9 -29 20 -29 37 0 29 -46 81 -72 81 -13 0 -18 8 -18 28 0 33
-26 60 -88 91 -31 16 -47 32 -58 60 -15 38 -47 61 -84 61 -16 0 -20 7 -20 31
0 44 -50 89 -98 89 -59 0 -168 102 -186 175 -4 15 -27 54 -52 86 -35 46 -53
61 -94 74 -40 13 -50 21 -50 39 0 40 -24 57 -130 92 -119 38 -145 41 -180 17
-19 -14 -25 -14 -28 -3 -3 8 -16 25 -29 38 l-25 25 32 68 c31 69 36 109 13
117 -8 2 -27 -27 -47 -72 -19 -42 -38 -76 -43 -76 -4 0 -15 15 -23 33 -9 18
-31 41 -53 52 -21 11 -46 34 -57 52 -10 17 -28 37 -39 42 -25 14 -76 14 -100
1 -14 -7 -21 -4 -32 16 -20 38 -88 74 -139 74 -31 0 -50 6 -67 22 -32 30 -111
30 -152 0 -18 -13 -32 -18 -36 -12 -9 15 -51 12 -65 -5 -8 -10 -30 -15 -64
-15 -29 0 -60 -6 -70 -13 -16 -12 -22 -10 -46 15 -16 15 -38 28 -49 28 -17 0
-20 5 -16 23 18 81 23 112 19 119 -8 12 -30 10 -41 -4z m-460 -115 c-7 -2 -19
-2 -25 0 -7 3 -2 5 12 5 14 0 19 -2 13 -5z m957 -64 c0 -11 -3 -11 -24 -3 -23
9 -20 23 4 17 11 -3 20 -9 20 -14z m-305 -55 c-34 -26 -55 -36 -55 -25 0 13
41 41 60 41 11 -1 10 -4 -5 -16z m497 -39 c11 -21 8 -18 -32 30 -24 29 -24 29
-2 10 13 -11 28 -29 34 -40z m-1953 -19 c-2 -2 -22 -6 -44 -9 -27 -4 -35 -3
-25 3 14 9 79 15 69 6z m2129 -43 c14 -23 14 -23 -19 -12 -19 7 -41 18 -49 26
-13 13 -11 14 19 11 21 -2 39 -11 49 -25z m-2313 -33 c-44 -45 -59 -51 -50
-17 9 29 42 57 68 57 18 0 16 -5 -18 -40z m-235 -189 c0 -10 -42 -23 -49 -15
-7 6 20 24 37 24 6 0 12 -4 12 -9z m-115 -21 c3 -5 1 -10 -5 -10 -6 0 -31 -19
-55 -41 l-45 -42 16 39 c8 22 23 45 32 52 19 15 48 16 57 2z m-475 -366 c-56
-17 -62 -17 -30 1 14 8 36 14 50 14 18 0 12 -4 -20 -15z m4171 -141 c13 -16
12 -17 -3 -4 -17 13 -22 21 -14 21 2 0 10 -8 17 -17z m234 -233 c10 -11 16
-20 13 -20 -3 0 -13 9 -23 20 -10 11 -16 20 -13 20 3 0 13 -9 23 -20z m59
-605 c-4 -8 -11 -15 -16 -15 -6 0 -5 6 2 15 7 8 14 15 16 15 2 0 1 -7 -2 -15z
m5 -159 c8 -10 9 -16 1 -21 -13 -8 -30 3 -30 21 0 18 14 18 29 0z m-5029 -996
c0 -21 -9 -39 -27 -56 -30 -28 -38 -25 -29 9 5 22 42 77 52 77 2 0 4 -14 4
-30z m2050 -280 c13 -9 13 -10 0 -10 -8 0 -22 5 -30 10 -13 9 -13 10 0 10 8 0
22 -5 30 -10z m-1764 -166 c-3 -26 -6 -63 -6 -83 l-1 -36 -29 33 c-39 42 -40
83 -4 111 40 32 48 27 40 -25z m4563 -165 c-13 -26 -23 -18 -14 10 3 12 11 19
16 16 5 -4 5 -14 -2 -26z m-2482 -2441 c70 -30 92 -82 55 -128 -43 -53 -122
-7 -122 70 0 22 7 45 16 54 19 19 16 19 51 4z m-2537 -1240 c13 -8 23 -9 29
-3 6 6 98 7 252 3 262 -7 350 -14 809 -58 168 -16 393 -34 500 -40 609 -33
717 -60 965 -240 45 -32 110 -73 145 -91 36 -18 68 -37 72 -42 8 -14 93 18
303 113 389 176 467 194 1150 264 521 54 609 60 895 60 300 0 389 -11 570 -70
103 -34 106 -36 153 -95 27 -33 47 -62 45 -64 -1 -1 -176 -8 -388 -14 -534
-15 -894 -45 -1295 -106 -432 -67 -914 -184 -1275 -311 l-129 -45 -120 71
c-449 266 -977 414 -1641 460 -184 13 -716 13 -970 0 -295 -15 -549 -30 -609
-36 l-54 -6 108 115 c105 111 110 115 164 126 31 6 65 12 76 15 49 10 226 5
245 -6z m-652 -3218 c103 -147 156 -196 306 -285 12 -8 22 -50 42 -180 46
-315 44 -402 -17 -658 -30 -124 -32 -129 -69 -153 -39 -26 -140 -68 -147 -61
-2 2 3 46 12 98 20 122 20 397 0 582 -19 178 -58 335 -141 575 -36 103 -61
183 -56 177 5 -5 37 -48 70 -95z m5725 15 c179 -31 325 -103 436 -213 63 -63
63 -65 57 -108 -7 -51 -56 -183 -89 -237 l-23 -38 -32 80 c-61 148 -173 290
-295 373 -79 54 -212 116 -294 138 l-68 18 111 1 c61 1 150 -6 197 -14z m-180
-85 c206 -77 388 -256 465 -457 55 -143 59 -127 -65 -251 -154 -155 -361 -285
-551 -347 -68 -22 -175 -16 -253 15 -67 26 -69 30 -69 215 0 327 95 603 261
761 108 102 110 102 212 64z m-5113 -306 c8 -26 30 -63 47 -81 32 -31 33 -35
24 -75 -6 -24 -14 -78 -20 -122 -5 -47 -16 -85 -25 -94 -15 -15 -16 -14 -16
15 0 54 -30 268 -49 346 l-18 75 21 -7 c13 -5 26 -25 36 -57z m3453 54 c16
-12 14 -16 -20 -42 -36 -29 -36 -29 -30 -5 4 13 7 32 7 42 0 20 19 22 43 5z
m-3355 -38 c8 0 10 -9 6 -27 -10 -40 -13 -41 -40 -10 -30 35 -31 51 -1 43 12
-3 28 -6 35 -6z m3604 -17 c24 -21 23 -83 -2 -193 -11 -47 -20 -101 -20 -120
0 -19 -12 -75 -25 -125 l-25 -90 5 194 c4 165 15 284 31 339 5 16 14 15 36 -5z
m-139 -25 l42 -33 -11 -60 c-11 -55 -37 -428 -38 -537 l-1 -47 -70 38 c-91 48
-120 94 -142 217 -22 126 -14 198 32 291 48 97 97 153 143 162 2 1 22 -14 45
-31z m-3321 3 c4 -3 -6 -49 -22 -101 -17 -52 -37 -133 -45 -180 -18 -103 -31
-145 -50 -160 -11 -9 -15 -5 -21 25 -8 42 -1 116 27 274 10 62 19 125 19 138
0 24 2 24 43 18 23 -4 45 -10 49 -14z m106 -20 c20 -12 40 -261 24 -296 -6
-14 -19 -25 -27 -25 -38 0 -74 184 -54 275 12 55 26 66 57 46z m86 -26 c-4 -8
-10 -12 -15 -9 -14 8 -10 24 6 24 9 0 12 -6 9 -15z m3470 -21 c-1 -16 -17 -72
-37 -124 -19 -52 -52 -153 -72 -225 -63 -225 -84 -289 -106 -324 -19 -32 -22
-33 -31 -16 -8 13 -8 32 0 64 7 25 27 120 47 211 48 229 119 428 157 443 28
12 43 1 42 -29z m-3354 6 c3 0 -3 -5 -12 -11 -13 -7 -18 -23 -18 -57 0 -50
-52 -178 -68 -168 -16 10 -22 117 -8 131 7 7 18 38 25 68 l12 55 32 -9 c18 -5
34 -9 37 -9z m4030 -20 c0 -53 -20 -109 -96 -264 -63 -130 -63 -130 -60 -81 2
28 18 90 35 138 17 48 38 119 47 158 12 54 21 72 37 79 35 14 37 12 37 -30z
m-305 10 c6 -10 -18 -104 -40 -155 -20 -46 -51 -149 -79 -261 -39 -156 -42
-161 -51 -78 -7 75 7 153 61 333 39 130 86 199 109 161z m-3630 -61 c7 -53 -7
-114 -30 -123 -32 -12 -54 61 -35 121 6 21 13 43 15 50 2 6 13 9 24 6 15 -4
21 -17 26 -54z m3709 -246 c2 -172 0 -227 -10 -240 -11 -16 -14 -16 -28 -3
-11 11 -18 59 -27 187 -12 166 -11 173 9 225 12 29 25 69 29 88 l7 35 8 -35
c4 -19 10 -135 12 -257z m-3599 256 c5 -6 3 -9 -7 -9 -9 0 -23 -3 -32 -6 -12
-4 -16 0 -16 16 0 18 4 20 23 15 12 -4 26 -11 32 -16z m3221 -121 c8 -57 26
-153 40 -215 14 -61 26 -133 27 -159 2 -42 0 -47 -21 -49 -35 -3 -48 32 -71
192 -11 78 -25 162 -31 188 -9 42 -8 55 11 101 13 30 24 52 27 50 2 -3 10 -51
18 -108z m140 49 c-2 -7 -14 -55 -27 -107 l-23 -95 -16 75 c-9 42 -19 91 -22
110 l-6 35 50 -3 c32 -3 47 -8 44 -15z m304 -4 c0 -10 -5 -25 -10 -33 -7 -11
-10 -7 -10 18 0 17 5 32 10 32 6 0 10 -8 10 -17z m-3191 -118 c8 -9 -4 -13
-59 -20 -54 -6 -55 -5 -77 27 -12 18 -32 45 -43 61 -21 26 -19 26 76 -18 54
-25 100 -48 103 -50z m2044 -92 c11 -156 58 -235 176 -297 l64 -34 -93 -47
c-78 -39 -99 -46 -129 -40 -30 6 -248 82 -260 91 -2 2 6 15 17 31 11 15 34 57
52 93 46 94 153 280 161 280 3 0 9 -35 12 -77z m626 -154 c1 -10 -14 -20 -40
-28 -23 -7 -47 -15 -54 -17 -9 -4 -1 36 23 120 l37 126 17 -93 c9 -50 17 -99
17 -108z m601 -53 c-14 -14 -31 4 -39 45 -5 25 -1 44 19 81 l25 47 3 -81 c2
-47 -2 -86 -8 -92z m-273 112 c-3 -7 -5 -2 -5 12 0 14 2 19 5 13 2 -7 2 -19 0
-25z"/>
<path d="M10723 7680 c0 -36 2 -50 4 -32 2 17 2 47 0 65 -2 17 -4 3 -4 -33z"/>
<path d="M9383 2093 c9 -2 23 -2 30 0 6 3 -1 5 -18 5 -16 0 -22 -2 -12 -5z"/>
<path d="M2033 1583 c15 -2 37 -2 50 0 12 2 0 4 -28 4 -27 0 -38 -2 -22 -4z"/>
<path d="M1582 65 c0 -16 2 -22 5 -12 2 9 2 23 0 30 -3 6 -5 -1 -5 -18z"/>
<path d="M10698 63 c6 -2 18 -2 25 0 6 3 1 5 -13 5 -14 0 -19 -2 -12 -5z"/>
<path d="M1688 33 c12 -2 30 -2 40 0 9 3 -1 5 -23 4 -22 0 -30 -2 -17 -4z"/>
<path d="M1838 23 c29 -2 74 -2 100 0 26 2 2 3 -53 3 -55 0 -76 -1 -47 -3z"/>
<path d="M2413 3 c48 -2 125 -2 170 0 45 1 6 3 -88 3 -93 0 -130 -2 -82 -3z"/>
<path d="M10163 3 c26 -2 67 -2 90 0 23 2 2 3 -48 3 -49 0 -68 -1 -42 -3z"/>
</g>
</svg>
